<?xml version="1.0" encoding="UTF-8"?>
<svg id="Layer_1" data-name="Layer 1" xmlns="http://www.w3.org/2000/svg" viewBox="0 0 438.18 357.91">
  <defs>
    <style>
      .cls-1 {
        fill: #3662e3;
      }
    </style>
  </defs>
  <path class="cls-1" d="M186.83,91.12c.58.92,2.11.56,3.05.57,7.55.08,17.55-1.01,20.72,7.62-.22,19.5,2.59,39.93,1.26,59.36-.47,6.84-1.96,13.2-9.35,15.11-3.55.91-11.51,1.24-15.39,1.29-11.56.14-23.92-.81-35.62-1.11-20.65-.52-39.2-2.29-55.85,12.47-19.38,17.19-22.64,49.59-6.89,70.26,22.79,29.88,76.03,16.26,108.32,18.41,8.08.54,12.97,2.63,14.2,11.37-1.09,17.79,1.6,36.28.56,53.95-.64,10.76-2.6,16.04-14.2,16.92-3.32.25-7.18-.64-10.28.56-3.88-.05-7.79.06-11.67,0-6.45-.11-13.68-.98-20.26-1.14-18.35-.42-35.71,1.11-53.76-2.93C20.7,335.71-22.21,243.81,11.66,168.56c19.79-43.99,65.66-76.05,114.29-76.3,15.9-.08,31.88-.94,47.55-1.14h13.34,0Z"/>
  <path class="cls-1" d="M147.57,191.36c.98-.93,2.58-1.71,3.96-1.87,5.31-.64,12.24.24,17.83.04,10.92-.41,23.47-2.25,34.3-.45,6.96,1.16,7.83,7.57,8.21,13.46,1.03,16.01-1.6,32.83-.56,48.95-.08,3.1-2.6,8.19-5.83,8.63-16.58-1.15-34.2,1.83-50.63.55-6.07-.48-9.46-2.24-10.2-8.7-1.81-15.93.65-33.75.52-49.98,0-1.33-.65-2.55-.6-3.85.05-1.87,1.65-5.49,3-6.77h0Z"/>
  <path class="cls-1" d="M251.34,0c-.58.92-2.11.56-3.05.57-7.55.08-17.55-1.01-20.72,7.62.22,19.5-2.59,39.93-1.26,59.36.47,6.84,1.96,13.2,9.35,15.11,3.55.91,11.51,1.24,15.39,1.29,11.56.14,23.92-.81,35.62-1.11,20.65-.52,39.2-2.29,55.85,12.47,19.38,17.19,22.64,49.59,6.89,70.26-22.79,29.88-76.03,16.26-108.32,18.41-8.08.54-12.97,2.63-14.2,11.37,1.09,17.79-1.6,36.28-.56,53.95.64,10.76,2.6,16.04,14.2,16.92,3.32.25,7.18-.64,10.28.56,3.88-.05,7.79.06,11.67,0,6.45-.11,13.68-.98,20.26-1.14,18.35-.42,35.71,1.11,53.76-2.93,80.98-18.12,123.9-110.02,90.02-185.27C406.72,33.44,360.86,1.38,312.23,1.14c-15.9-.08-31.88-.94-47.55-1.14h-13.34,0Z"/>
  <path class="cls-1" d="M290.61,100.24c-.98-.93-2.58-1.71-3.96-1.87-5.31-.64-12.24.24-17.83.04-10.92-.41-23.47-2.25-34.3-.45-6.96,1.16-7.83,7.57-8.21,13.46-1.03,16.01,1.6,32.83.56,48.95.08,3.1,2.6,8.19,5.83,8.63,16.58-1.15,34.2,1.83,50.63.55,6.07-.48,9.46-2.24,10.2-8.7,1.81-15.93-.65-33.75-.52-49.98,0-1.33.65-2.55.6-3.85-.05-1.87-1.65-5.49-3-6.77h0Z"/>
</svg>