<?xml version="1.0" encoding="UTF-8"?>
<svg id="Layer_1" data-name="Layer 1" xmlns="http://www.w3.org/2000/svg" viewBox="0 0 523.29 81.68">
  <defs>
    <style>
      .cls-1 {
        fill: #231f20;
      }
    </style>
  </defs>
  <g>
    <path class="cls-1" d="M42.64,20.8c.13.21.48.13.7.13,1.72.02,4-.23,4.73,1.74-.05,4.45.59,9.11.29,13.55-.11,1.56-.45,3.01-2.13,3.45-.81.21-2.63.28-3.51.29-2.64.03-5.46-.19-8.13-.25-4.71-.12-8.95-.52-12.75,2.85-4.42,3.92-5.17,11.32-1.57,16.03,5.2,6.82,17.35,3.71,24.72,4.2,1.84.12,2.96.6,3.24,2.59-.25,4.06.37,8.28.13,12.31-.15,2.46-.59,3.66-3.24,3.86-.76.06-1.64-.15-2.34.13-.89-.01-1.78.01-2.66,0-1.47-.02-3.12-.22-4.62-.26-4.19-.1-8.15.25-12.27-.67C4.72,76.61-5.07,55.64,2.66,38.47c4.52-10.04,14.99-17.36,26.08-17.41,3.63-.02,7.28-.21,10.85-.26h3.04,0Z"/>
    <path class="cls-1" d="M33.68,43.67c.22-.21.59-.39.9-.43,1.21-.15,2.79.06,4.07,0,2.49-.09,5.36-.51,7.83-.1,1.59.27,1.79,1.73,1.87,3.07.23,3.65-.37,7.49-.13,11.17-.02.71-.59,1.87-1.33,1.97-3.78-.26-7.8.42-11.55.13-1.39-.11-2.16-.51-2.33-1.99-.41-3.63.15-7.7.12-11.41,0-.3-.15-.58-.14-.88.01-.43.38-1.25.68-1.54h0Z"/>
    <path class="cls-1" d="M57.36,0c-.13.21-.48.13-.7.13-1.72.02-4-.23-4.73,1.74.05,4.45-.59,9.11-.29,13.55.11,1.56.45,3.01,2.13,3.45.81.21,2.63.28,3.51.29,2.64.03,5.46-.19,8.13-.25,4.71-.12,8.95-.52,12.75,2.85,4.42,3.92,5.17,11.32,1.57,16.03-5.2,6.82-17.35,3.71-24.72,4.2-1.84.12-2.96.6-3.24,2.59.25,4.06-.37,8.28-.13,12.31.15,2.46.59,3.66,3.24,3.86.76.06,1.64-.15,2.34.13.89-.01,1.78.01,2.66,0,1.47-.02,3.12-.22,4.62-.26,4.19-.1,8.15.25,12.27-.67,18.48-4.13,28.28-25.11,20.55-42.28C92.82,7.63,82.35.31,71.26.26c-3.63-.02-7.28-.21-10.85-.26h-3.04,0Z"/>
    <path class="cls-1" d="M66.32,22.88c-.22-.21-.59-.39-.9-.43-1.21-.15-2.79.06-4.07,0-2.49-.09-5.36-.51-7.83-.1-1.59.27-1.79,1.73-1.87,3.07-.23,3.65.37,7.49.13,11.17.02.71.59,1.87,1.33,1.97,3.78-.26,7.8.42,11.55.13,1.39-.11,2.16-.51,2.33-1.99.41-3.63-.15-7.7-.12-11.41,0-.3.15-.58.14-.88-.01-.43-.38-1.25-.68-1.54h0Z"/>
  </g>
  <g>
    <path class="cls-1" d="M166.34,19.64c4.72,4.06,7.08,9.85,7.08,17.38h-16.78c0-3.18-.83-5.7-2.51-7.56-1.67-1.86-4.04-2.78-7.12-2.78-3.55,0-6.16,1.11-7.83,3.34s-2.51,5.33-2.51,9.31v5.09c0,3.92.83,7.01,2.51,9.27,1.67,2.25,4.23,3.38,7.68,3.38s5.97-.88,7.71-2.62c1.75-1.75,2.62-4.22,2.62-7.4h16.23c0,7.48-2.29,13.2-6.88,17.18-4.59,3.98-11.07,5.97-19.45,5.97-9.33,0-16.4-2.39-21.2-7.16-4.8-4.77-7.2-11.82-7.2-21.16s2.4-16.38,7.2-21.16c4.8-4.77,11.86-7.16,21.2-7.16,8.11,0,14.53,2.03,19.25,6.08Z"/>
    <path class="cls-1" d="M182.32,69.23V11.57h15.83v57.66h-15.83Z"/>
    <path class="cls-1" d="M238.71,69.23l-1.03-6.36c-1.64,2.28-3.8,4.07-6.48,5.37s-5.5,1.95-8.47,1.95c-4.88,0-8.54-1.35-10.98-4.06s-3.66-6.6-3.66-11.69v-27.2h15.83v25.29c0,1.8.46,3.25,1.39,4.33.93,1.09,2.24,1.63,3.94,1.63,1.96,0,3.55-.64,4.77-1.91,1.22-1.27,1.83-2.84,1.83-4.69v-24.66h15.83v42h-12.96Z"/>
    <path class="cls-1" d="M288.98,26.29c5.67,0,10.05,1.84,13.12,5.53,3.07,3.69,4.61,9.13,4.61,16.34s-1.54,12.75-4.61,16.46c-3.08,3.71-7.45,5.57-13.12,5.57s-10.29-2.31-13.36-6.92l-1.35,5.96h-12.88V11.57h15.83v19.57c3.02-3.23,6.95-4.85,11.77-4.85ZM278.8,40.48c-1.17,1.67-1.75,3.83-1.75,6.48v2.62c0,2.65.58,4.8,1.75,6.44,1.17,1.64,2.92,2.47,5.25,2.47,4.56,0,6.84-2.7,6.84-8.11v-4.22c0-5.46-2.28-8.19-6.84-8.19-2.33,0-4.08.84-5.25,2.51Z"/>
    <path class="cls-1" d="M355.23,16.86c2.65,1.56,4.72,3.71,6.2,6.44,1.48,2.73,2.23,5.79,2.23,9.19v1.03c0,3.39-.74,6.47-2.23,9.23-1.49,2.76-3.55,4.92-6.2,6.48-2.65,1.56-5.67,2.35-9.07,2.35h-13.12v17.66h-17.58V14.51h30.7c3.39,0,6.42.78,9.07,2.35ZM333.04,38.77h7.24c1.86,0,3.25-.48,4.18-1.43.93-.95,1.39-2.25,1.39-3.9v-.64c0-1.7-.46-3.01-1.39-3.94-.93-.93-2.32-1.39-4.18-1.39h-7.24v11.29Z"/>
    <path class="cls-1" d="M406.85,29.51c4.03,2.15,6.04,5.63,6.04,10.46v16.38c0,.9.21,1.64.64,2.23.42.58,1.06.88,1.91.88h2.86v9.15c-.16.11-.57.28-1.23.52-.66.24-1.6.48-2.82.72-1.22.24-2.62.36-4.22.36-3.08,0-5.61-.46-7.6-1.39-1.99-.93-3.35-2.21-4.1-3.86-2.02,1.59-4.27,2.86-6.76,3.82-2.49.95-5.41,1.43-8.75,1.43-9.86,0-14.79-3.92-14.79-11.77,0-4.08,1.1-7.2,3.3-9.35s5.37-3.62,9.5-4.41,9.54-1.19,16.23-1.19v-2.07c0-1.64-.57-2.89-1.71-3.74-1.14-.85-2.61-1.27-4.42-1.27-1.64,0-3.06.29-4.25.87-1.19.58-1.79,1.51-1.79,2.78v.32h-15.59c-.05-.26-.08-.64-.08-1.11,0-3.98,1.9-7.13,5.69-9.46,3.79-2.33,9.21-3.5,16.27-3.5,6.42,0,11.64,1.07,15.67,3.22ZM387.09,52.41c-2.15.98-3.22,2.29-3.22,3.94,0,2.65,1.8,3.98,5.41,3.98,2.07,0,3.88-.56,5.45-1.67,1.56-1.11,2.35-2.49,2.35-4.14v-3.58c-4.51,0-7.83.49-9.98,1.47Z"/>
    <path class="cls-1" d="M461.93,30.7c4.27,2.94,6.4,7.44,6.4,13.48h-15.35c0-4.77-2.6-7.16-7.79-7.16s-7.79,3-7.79,8.99v4.53c0,5.94,2.7,8.91,8.11,8.91s8.11-2.44,8.11-7.32h14.71c0,6.1-2.14,10.63-6.4,13.6-4.27,2.97-9.85,4.45-16.74,4.45-7.37,0-13.15-1.86-17.34-5.57-4.19-3.71-6.28-9.17-6.28-16.38s2.09-12.67,6.28-16.38c4.19-3.71,9.97-5.57,17.34-5.57,6.89,0,12.47,1.47,16.74,4.41Z"/>
    <path class="cls-1" d="M504.44,27.24h18.45l-15.51,16.94,15.91,25.05h-17.98l-8.83-14.4-5.49,5.33v9.07h-15.83V11.49h15.83v31.81l13.44-16.07Z"/>
  </g>
</svg>