<?xml version="1.0" encoding="UTF-8"?>
<svg id="Layer_1" data-name="Layer 1" xmlns="http://www.w3.org/2000/svg" viewBox="0 0 401.63 99.26">
  <defs>
    <style>
      .cls-1 {
        fill: #010101;
      }
    </style>
  </defs>
  <g>
    <path class="cls-1" d="M80.65,51.33c6.36.54,7.38,7.19,6.93,12.44-.08.91-.67,2.12-.68,2.83-.02,4.77.49,9.73.18,14.53-.5,7.76-8.01,7.69-14,8.11-2.6,5.55-8.86,9.44-14.95,9.83-8.23.53-17.08-.23-25.38.17-5.01-.18-8.35-.76-12.48-3.71-2.53-1.81-4.1-3.8-5.79-6.39-2.25-.23-4.68-.26-6.9-.61-7.86-1.24-7.2-8.22-7.09-14.4.04-2.23.53-5.63.32-7.7-.08-.83-.59-1.5-.68-2.33-.34-3.17-.19-7.86,2.01-10.34,2.63-2.98,6.14-2.11,9.65-2.61.26-6.04-.51-12.25.57-18.21s3.96-11.62,7.95-16.08c.32-.36.88-.49.98-1.03-.58-2.87-1.77-6.32-3.81-8.47-.74-.78-1.16-1.18-1.76.09-.66,1.4-.86,5.58-.92,7.25-.08,2.12.41,6.64-.36,8.32-.16.35-1.87,2.93-2.3,2.45l.16-10.44c.45-3.42-.09-11.5,4.3-12.55,1.7-.41,7.92-.39,9.78-.19,3.32.36,4.67,3.56,6.36,5.98.41.4,1.86.07,2.16-.34.22-.3.35-1.17.56-1.61,1.21-2.5,2.79-4.84,5.54-5.81,4.34-1.53,8.68.39,10.85,4.33.43.78.98,2.77,1.42,3.25.29.31,1.5.86,1.88.64.24-.14,2.37-3.97,3.03-4.72s1.62-1.49,2.66-1.67c1.8-.31,7.71-.28,9.59-.06,5.85.7,4.85,12.08,4.93,16.26,0,.39.17.76.18,1.15.04,1.97-.04,3.96,0,5.93-.46.48-1.92-2.27-2.09-2.66-.82-1.81-.63-5.16-.74-7.27-.09-1.6,0-8.16-1.33-9.02-.32-.21-.97.62-1.17.85-1.23,1.4-3.69,6.4-3.53,8.18.06.64.49.58.86.99,2.93,3.31,5.85,8.33,7.12,12.57,2.11,7.04.88,14.79,1.21,22.06,1.54.1,3.23-.13,4.76,0ZM49.87,7.45c.13-1.93-1.73-3.88-3.46-4.47-3.48-1.19-7.9.28-8.22,4.3,3.89-.34,7.82-.6,11.68.17ZM69.06,4.44c-2.2.2-4.77-.05-6.92.17-1.05.11-1.34.43-2.01,1.16-.46.5-2.52,3.77-2.24,4.16l6.33,3.68,2.75-6.18,2.09-3ZM19,4.61l1.63,2.28,3.62,6.72c1.67-1.8,3.99-2.69,6.02-4,.21-.44-2.85-4.4-3.61-4.74-.91-.41-1.12-.09-1.9-.09-1.93,0-3.83-.14-5.76-.17ZM72.56,31.98c-1.8-7.87-6.77-14.66-13.8-18.65-14.71-8.36-34.9-2.65-41.8,13.03-.69,1.58-1.26,3.35-1.64,5.04.26.2.77-.21.99-.35,2.23-1.39,2.76-3.11,4.28-4.89,1.42-1.66,2.22-.43,3.82-.51s2.11-2.04,2.86-3.16c.8-1.21,3.02-4.63,4.49-4.7,1.59-.07,5.01,3.23,6.44,4.25.4.28,2.92,2.03,3.11,2.08.61.15,1.72-1.71,2.13-2.15,1.89-2.03,2.71-2.84,4.93-.59,1.19,1.2,2.27,2.74,3.28,4.09.99.18,1.87-.27,2.8-.34,3.26-.24,5.61,2.39,7.89,4.31.86.25,1.99-.54,2.82-.63,1.4-.15,3.24,1.74,4.63,2.35.35.15,2.66.94,2.78.8ZM14.66,34.9v6.09c2.44-.6,3.58-3.48,4.94-5.32,1.47-2,3.87-4.26,6.25-5.1.81-.29,2.18-.35,2.82-.68s1.17-1.45,1.68-1.99c1.94-2.07,3.87.19,6.03.5.46-.15,3.56-2.44,3.32-2.75-1.51-.73-3.25-1.51-4.63-2.47-1.22-.85-2.1-2-3.3-2.85-2.62,2.11-3.55,7.25-7.36,7.63-.6.06-2.11-.3-2.23-.24-.27.14-2.2,3.23-2.83,3.85s-4.6,3.05-4.68,3.33ZM14.49,44.57v2.75c4.48-.64,5.74-5.69,8.86-8.08,4.02-3.09,6.48-2.34,11.08-2.1,1.94.1,2.43-1.05,3.87-1.97,3.04-1.95,6.84-3.87,10.4-4.62.88-.18,2.55-.74,2.68.5.19,1.7-1.43,1.34-2.64,1.71-5.33,1.63-10.64,4.26-14.22,8.64-2.51,3.07-4.08,7-6.51,10.18-.04.11.14.11.25.08,4.67-1.48,8.28-7.87,11.86-11.01,5.58-4.9,16.42-8.94,23.85-8.18,1,.1,1.79.41,1,1.5-.68.94-4.7.85-5.98,1.03-9.11,1.21-14.55,3.75-20.71,10.49-3.71,4.06-5.63,6.5-10.75,9.1-2.65,1.35-6.28,3.21-9.05,4.13-.66.22-3.54.81-3.8,1.03-.36.3-.17,1.41.28,1.56.66.22,2.81-.06,3.6-.18,3.69-.6,8.72-2.5,11.9-4.46,6.36-3.92,9.81-10.27,15.84-14.36,6.65-4.51,16.18-6.89,24.21-6.51.69.03,1.72.34,2.35.33.6,0,.26-1.41.07-1.58-.41-.35-3.9-1.06-4.84-1.5-.77-.36-1.85-1.41-2.63-1.56-.62-.12-1.92.24-2.79.14-2.56-.28-5.9-4.21-7.67-4.18-1.25.02-2.92.9-4.14.3-.9-.73-4.05-5.12-5.03-4.98-.53.97-1.68,1.53-2.17,2.53-.44.89-.36,1.87-.69,2.82-.19.55-1,2.11-1.5,2.34l-1-2.5c-.91.67-2.13,1.27-2.93,2.08-1.48,1.5-2.05,3.52-4.21,4.63-.62.32-2.66.97-2.04-.37.41-.87,2.9-2.48,3.42-3.59.07-.33-.07-.2-.21-.28-.5-.29-1.5-.76-2.07-.79-.88-.05-2.21,1.68-3.11,2.19-1.19.69-2.62.89-3.85,1.49-4.01,1.97-5.83,6.76-9.11,9.74-.34.31-1.75,1.19-1.84,1.5ZM73.23,40.65l-.16-2.26c-4.46-.72-9.3-.27-13.7.67s-9.14,2.98-12.8,5.56c-3.88,2.73-6.65,6.74-10.08,9.95-5.64,5.28-14.06,8.43-21.68,9.19l-.08,1.61c2.58.45,5.44-.06,7.97-.73,4.45-1.18,9.63-3.24,13.22-6.13,2.82-2.27,5.17-5.54,7.76-8.09,6.9-6.8,15.65-9.72,25.28-10.1l4.26.35ZM27.4,41.21c.68-.62,1.73-1.27,2.55-1.7.28-.14,1.52-.3.77-.67s-3.06.2-3.88.56c-2.94,1.3-3.65,3.46-5.51,5.67s-4.19,3.69-6.75,5.09l-.08,2.34c3.06-.36,5.87-2.48,7.84-4.76,1.74-2.02,3.07-4.71,5.07-6.53ZM14.66,57.51c.2.22,5.04-1.46,5.67-1.76,5.78-2.66,8.92-10.79,12.77-15.6.13-.16.39-.27.17-.51-.63-.58-1.2-.25-1.89-.11-4.71,4.29-7.03,10.82-12.88,13.88-1.19.62-2.64,1.04-3.85,1.66-.47.46.07,1.82,0,2.43ZM73.21,45.3c.78-2.39-.38-2.51-2.39-2.65-7.35-.51-16.13,1.78-22.11,6.11-3.62,2.62-6.12,6.45-9.35,9.5-4.43,4.19-10.14,6.8-16.02,8.34-2.83.75-5.73,1.2-8.67,1.26l.07,1.66c.27.35,3.78.22,4.34.16,3.21-.33,6.27-1.72,9.43-2.42.22-.05,2.16-.55,2.17-.33-.33,2.01-2.08,2.51-3.75,3.09-3.91,1.37-7.96,1.9-12.1,2.08-.6.29-.21,1.22-.13,1.72,3.77.62,7.95-.17,11.52-1.51,3.72-1.4,4.2-2.52,6.97-4.88,1.35-1.15,2.86-2.15,4.18-3.33,1.48-1.34,2.74-3.04,4.17-4.34,2-1.84,3.28-2.06,4.69-4.64,1.86-3.4,3.52-4.83,7.02-6.52,6.17-2.98,13.18-3.91,19.98-3.3ZM73.38,47.68c-.62-.1-1.28-.29-1.9-.35-6.38-.62-16.49,1.29-21.44,5.59-.32.28-2.19,2.06-1.83,2.42,2.84-.96,5.47-2.47,8.3-3.46,5.42-1.9,11.16-2.42,16.9-2.21l-.02-1.99ZM73.39,52.17c-6.57-1-13.29.44-19.35,2.92-3.87,1.58-7.35,3.42-10.5,6.19-5.53,4.87-11.89,11.64-19.08,13.79-3.1.93-6.46,1.38-9.7,1.31l-.25.25.25,1.74c3.15.53,6.7-.04,9.77-.9,10.54-2.94,16.46-12.04,25.38-17.34,7.19-4.27,15.01-6.65,23.47-5.64v-2.34ZM11.82,53.67h-3.59c-.66,0-2.23.35-2.84.66-2.68,1.37-2.97,6.97-2.57,9.59.33,2.13,3.44,1.51,3.79.31.24-.8-.02-2.95.04-3.97.04-.68.1-1.66.18-2.32.32-2.62,2.99-2.44,4.97-3.13l.02-1.15ZM80.65,53.67c-1.41-.18-3.14.13-4.59,0v1.16c1.97.16,3.9.84,4.58,2.85.4,1.17.09,1.41.08,2.41,0,.85-.15,3.17.04,3.81.36,1.19,3.04,2.18,3.87.77.4-.68.33-3.81.27-4.75-.18-2.59-1.25-5.88-4.26-6.25ZM73.2,58.99c.22-.42.35-2.01.03-2.24-3.8-.58-7.92-.13-11.66.7-4.4.98-9.36,3.41-13.1,5.92-3.04,2.05-5.43,5.08-8.3,7.38-5.3,4.23-12.16,8.71-18.97,9.73-2.09.31-4.32.2-6.43.37-.42.1-.41,2.02.97,2.18,3.88.46,9.66-.74,13.26-2.26,4.09-1.72,6.85-4.47,10.5-6.69,1.48-.9,2.39-1.08,3.78-2.4,1.7-1.62,3.11-3.36,5.01-4.83,7.26-5.64,15.63-8.52,24.92-7.87ZM11.99,57.34c-.19-.19-2.29.52-2.59.83-.26.26-.38,1.61-.42,2.09-.09,1.38.17,3,0,4.33-.08.59-.58,1.34-.6,1.81s.26,1.21.28,1.71c.19,4.35.2,8.67.33,13.02.02.8.17,4.63.42,4.91l3.76.5c-.48-1.91-1.21-3.54-1.34-5.58-.2-3.16,0-6.81,0-10.03s.09-6.79.18-10.17c.03-1.14-.04-2.29,0-3.43ZM74.4,86.54c.2.27,3.33.04,3.67-.25s.62-2.72.67-3.33c.4-4.75.78-12.21.34-16.86-.07-.76-.43-1.42-.51-2.16-.1-1.05.25-4.95-.16-5.52-.24-.33-2.73-1.49-2.52-.33-.32,7.34.45,15.07,0,22.37-.13,2.1-.57,4.21-1.5,6.09ZM73.39,63.85l-.07-2.35c-3.44-.7-7.36-.17-10.78.59-6.98,1.57-12.91,5.84-17.86,10.84-.68.69-1.18,1.75-2.01,2.33-1,.71-2.54.94-3.71,1.63-1.73,1.01-3.46,2.56-5.2,3.64-4.39,2.73-9.17,4.28-14.36,4.67-1.19.09-2.43-.18-3.58.17.05.49.47,1.82.95,1.96.56.17,3.7.09,4.48.04,5.06-.33,14.03-3.73,17.18-7.85.67-.88.73-2.28,2.08-2.17.38,1.56.3,2.2-.67,3.41-4.35,5.41-13.11,8.23-19.77,8.93-.37.04-1.67-.15-1.75.26-.1.51,1.66,1.98,2.27,2.03,2.18.16,7.11-1.08,9.28-1.83,4.18-1.43,9.52-4.87,11.84-8.68,1.67-2.75,4.02-5.68,6.3-8.05,6.47-6.69,15.99-10.65,25.37-9.59ZM73.2,68.33c.68-2.32-.06-2.37-2.06-2.48-7.23-.41-15.72,3.14-20.86,8.18-3.93,3.85-6.15,8.79-10.26,12.43-4.78,4.23-10.49,6.87-16.91,7.42l-.12.42c1.05.61,2.68,1.59,3.91,1.57,1.87-.04,7.33-2.42,9.11-3.4,7.52-4.13,9.46-9.75,14.93-15.44,5.74-5.97,13.94-9.21,22.26-8.7ZM80.74,86.04c1.51-.61,2.62-1.06,3.25-2.67,1.05-2.68.46-6.13.41-8.92-.03-1.86.27-4.62,0-6.35-.02-.16-.07-.34-.24-.37-1,.41-1.94-.17-2.93-.21l-.5,18.52ZM6.14,67.69l-2.82.17c-.01.42-.15.82-.18,1.24-.22,3.34-.28,8.9,0,12.19.18,2.09,1.69,3.96,3.68,4.58l-.67-18.18ZM32.68,96.55h5.42c.67,0,5.1-3.33,5.84-4,3.89-3.47,6.25-8.23,9.98-11.96,5.01-5.01,11.98-8.02,19.14-7.64.35-.99.84-2.28-.59-2.44-8.41-.94-17.13,4.13-22.37,10.35-4.96,5.9-6.07,9.73-13.56,13.64-1.01.53-2.75,1.06-3.58,1.59-.21.13-.35.15-.29.46ZM73.21,77.51c.91-2.86-.95-2.43-3.07-2.32-6.32.33-12.03,3.73-16.28,8.25-3.5,3.72-5.27,7.93-9.34,11.35-.23.19-2.49,1.63-2.17,1.92l4.65-.19c.23-.99,1.12-1.38,1.7-2.06,3.23-3.77,5.09-7.77,9-11.19,4.21-3.67,9.87-5.95,15.5-5.77ZM73.22,79.87c-4.27-.47-9.01,1.15-12.5,3.6-4.77,3.35-6.1,6.47-9.22,10.97-.21.31-1.57,1.69-1.31,1.95l3.17.09c2.77-5.64,7.06-11.01,13.14-13.23,2.08-.76,4.16-1.08,6.37-1.23l.35-2.15ZM72.23,84.54c-7.22-.31-13.46,5.18-16.01,11.6.03.4,2.24.27,2.67.17,1.97-5.03,6.94-8.96,12.39-9.43l.95-2.35ZM69.72,89.38c-1.74.12-3.59,1.23-4.92,2.34-.45.38-3.53,3.58-3.09,4,1.78-.36,3.5-1.41,4.92-2.51.47-.37,3.68-3.28,3.09-3.83Z"/>
    <path class="cls-1" d="M58.17,17.5c4.25-.73,5.86,4.7,2.6,6.77s-7.69-2.95-4.14-5.98c.39-.33,1.03-.71,1.54-.8ZM57.75,20c-.99,1.67,1.21,3.37,2.37,1.79,1.02-1.39-1.1-2.9-2.37-1.79Z"/>
    <path class="cls-1" d="M49.65,14.84c1.32,1.33-.97,3.06-2.31,1.89-.26-.33-.23-1.78.06-2.06.4-.4,1.86-.22,2.25.17Z"/>
    <path class="cls-1" d="M45.16,14.83c1.38,2.43-2.59,3.12-2.64,1.05-.04-1.51,1.59-1.7,2.64-1.05Z"/>
    <path class="cls-1" d="M38.48,14.49c2.14-.31,1.78,2.54.28,2.64-1.6.1-2.04-2.38-.28-2.64Z"/>
  </g>
  <g>
    <path class="cls-1" d="M132.73,25.6c0,9.25-4.85,13.87-14.55,13.87h-12.01V11.74h12.01c9.7,0,14.55,4.62,14.55,13.87ZM115.07,32.82h2.94c3.74,0,5.6-2,5.6-6.01v-2.42c0-4-1.87-6.01-5.6-6.01h-2.94v14.43Z"/>
    <path class="cls-1" d="M136.76,11.74h23.99v6.65h-15.08v3.83h12.9v6.37h-12.9v4.23h15.36v6.65h-24.27V11.74Z"/>
    <path class="cls-1" d="M185.5,13.41c2.28,1.44,3.45,3.57,3.51,6.39v.48h-8.35v-.16c0-.81-.3-1.48-.89-2.02-.59-.54-1.49-.81-2.7-.81s-2.09.18-2.72.52c-.63.35-.95.78-.95,1.29,0,.73.43,1.26,1.29,1.61.86.35,2.24.71,4.15,1.09,2.23.46,4.07.93,5.5,1.43,1.44.5,2.69,1.31,3.77,2.44,1.07,1.13,1.63,2.66,1.65,4.6,0,3.28-1.11,5.71-3.33,7.3-2.22,1.59-5.18,2.38-8.89,2.38-4.33,0-7.69-.73-10.1-2.18-2.41-1.45-3.61-4.02-3.61-7.7h8.43c0,1.4.36,2.33,1.09,2.8.73.47,1.85.71,3.39.71,1.13,0,2.06-.12,2.8-.36s1.11-.74,1.11-1.49c0-.67-.41-1.18-1.23-1.51-.82-.34-2.16-.69-4.01-1.07-2.26-.48-4.13-.99-5.6-1.51-1.48-.52-2.77-1.39-3.87-2.6-1.1-1.21-1.65-2.85-1.65-4.92,0-3.04,1.18-5.27,3.53-6.71,2.35-1.44,5.33-2.16,8.93-2.16s6.46.72,8.75,2.16Z"/>
    <path class="cls-1" d="M209.41,18.83v20.64h-8.91v-20.64h-9.11v-7.1h27.09v7.1h-9.07Z"/>
    <path class="cls-1" d="M222.19,39.47V11.74h8.91v27.74h-8.91Z"/>
    <path class="cls-1" d="M256.54,39.47l-11.65-13.47v13.47h-8.18V11.74h7.78l11.65,13.67v-13.67h8.18v27.74h-7.78Z"/>
    <path class="cls-1" d="M287.7,39.47l-1.17-3.91h-9.72l-1.17,3.91h-9.11l10.12-27.74h10.36l10.12,27.74h-9.43ZM278.67,29.35h6.01l-2.9-9.88h-.16l-2.94,9.88Z"/>
    <path class="cls-1" d="M312.9,18.83v20.64h-8.91v-20.64h-9.11v-7.1h27.09v7.1h-9.07Z"/>
    <path class="cls-1" d="M325.68,39.47V11.74h8.91v27.74h-8.91Z"/>
    <path class="cls-1" d="M365.07,14.92c2.61,2.45,3.91,6.01,3.91,10.68s-1.3,8.24-3.91,10.68c-2.61,2.45-6.3,3.67-11.09,3.67s-8.47-1.22-11.07-3.65c-2.59-2.43-3.89-6-3.89-10.7s1.3-8.27,3.89-10.7c2.59-2.43,6.28-3.65,11.07-3.65s8.48,1.22,11.09,3.67ZM349.63,19.64c-.99,1.16-1.49,2.71-1.49,4.68v2.58c0,1.96.5,3.52,1.49,4.68.99,1.16,2.45,1.73,4.35,1.73s3.37-.58,4.37-1.73c1.01-1.16,1.51-2.71,1.51-4.68v-2.58c0-1.96-.5-3.52-1.51-4.68-1.01-1.16-2.47-1.73-4.37-1.73s-3.36.58-4.35,1.73Z"/>
    <path class="cls-1" d="M392.85,39.47l-11.65-13.47v13.47h-8.18V11.74h7.78l11.65,13.67v-13.67h8.18v27.74h-7.78Z"/>
    <path class="cls-1" d="M143.79,68.28c0,12.71-6.67,19.06-20,19.06h-16.51v-38.12h16.51c13.33,0,20,6.35,20,19.06ZM119.53,78.2h4.04c5.13,0,7.7-2.75,7.7-8.25v-3.32c0-5.5-2.57-8.25-7.7-8.25h-4.04v19.83Z"/>
    <path class="cls-1" d="M183.63,67.23c-1.26,1.88-3.08,3.27-5.48,4.16l8.48,15.96h-13.74l-6.76-13.91h-4.54v13.91h-12.24v-38.12h23.32c2.73,0,5.07.53,7.01,1.58s3.4,2.48,4.38,4.27c.98,1.79,1.47,3.74,1.47,5.84,0,2.33-.63,4.43-1.88,6.32ZM172.05,58.92c-.67-.66-1.48-1-2.44-1h-8.03v7.04h8.03c.96,0,1.77-.34,2.44-1.02.66-.68,1-1.52,1-2.52s-.33-1.83-1-2.49Z"/>
    <path class="cls-1" d="M191.94,87.34v-38.12h12.24v38.12h-12.24Z"/>
    <path class="cls-1" d="M211.88,49.22h30.8v9.14h-18.56v6.54h15.96v8.75h-15.96v13.68h-12.24v-38.12Z"/>
    <path class="cls-1" d="M269.72,58.97v28.36h-12.24v-28.36h-12.52v-9.75h37.23v9.75h-12.46Z"/>
    <path class="cls-1" d="M286.73,49.22h32.96v9.14h-20.72v5.26h17.73v8.75h-17.73v5.82h21.11v9.14h-33.35v-38.12Z"/>
    <path class="cls-1" d="M359.96,67.23c-1.26,1.88-3.08,3.27-5.48,4.16l8.48,15.96h-13.74l-6.76-13.91h-4.54v13.91h-12.24v-38.12h23.32c2.73,0,5.07.53,7.01,1.58,1.94,1.05,3.4,2.48,4.38,4.27.98,1.79,1.47,3.74,1.47,5.84,0,2.33-.63,4.43-1.88,6.32ZM348.39,58.92c-.66-.66-1.48-1-2.44-1h-8.03v7.04h8.03c.96,0,1.77-.34,2.44-1.02.67-.68,1-1.52,1-2.52s-.33-1.83-1-2.49Z"/>
    <path class="cls-1" d="M395.75,51.52c3.14,1.98,4.75,4.9,4.82,8.78v.66h-11.47v-.22c0-1.11-.41-2.03-1.22-2.77-.81-.74-2.05-1.11-3.71-1.11s-2.87.24-3.74.72c-.87.48-1.3,1.07-1.3,1.77,0,1,.59,1.74,1.77,2.22,1.18.48,3.08.98,5.71,1.5,3.07.63,5.59,1.28,7.56,1.97,1.97.68,3.7,1.8,5.18,3.35,1.48,1.55,2.23,3.66,2.27,6.32,0,4.51-1.52,7.85-4.57,10.03-3.05,2.18-7.12,3.27-12.22,3.27-5.95,0-10.57-1-13.88-2.99-3.31-1.99-4.96-5.52-4.96-10.58h11.58c0,1.92.5,3.2,1.5,3.85,1,.65,2.55.97,4.65.97,1.55,0,2.83-.17,3.85-.5,1.01-.33,1.52-1.02,1.52-2.05,0-.92-.56-1.62-1.69-2.08-1.13-.46-2.96-.95-5.51-1.47-3.1-.66-5.67-1.36-7.7-2.08-2.03-.72-3.8-1.91-5.32-3.57-1.51-1.66-2.27-3.91-2.27-6.76,0-4.17,1.62-7.25,4.85-9.22,3.23-1.98,7.32-2.96,12.27-2.96s8.88.99,12.02,2.96Z"/>
  </g>
</svg>