<?xml version="1.0" encoding="UTF-8"?>
<svg id="Layer_1" data-name="Layer 1" xmlns="http://www.w3.org/2000/svg" viewBox="0 0 413.38 96.35">
  <defs>
    <style>
      .cls-1 {
        fill: #231f20;
      }

      .cls-2 {
        fill: #040403;
      }
    </style>
  </defs>
  <g>
    <path class="cls-2" d="M45.63.05c28.65-1.26,51.97,21.74,50.62,50.46-1.42,30.33-30.42,51.83-59.98,44.33C9.91,88.16-5.73,60.78,1.96,34.53,7.62,15.2,25.38.94,45.63.05ZM45.95,3.56C24.79,4.47,7,20.78,3.99,41.67c-4.36,30.18,21.97,55.74,52.05,50.45,18.49-3.25,33.19-18.14,36.2-36.68C96.83,27.19,74.42,2.33,45.95,3.56Z"/>
    <path class="cls-2" d="M16.83,55.9c3.19,13.04,14.73,21.94,27.9,23.23,8.48.83,16.4-1.2,23.26-6.19,5.71-4.15,9.7-10.03,11.42-16.91,0-.08-.28-.12-.36-.13-1.05-.09-3.34.09-3.97-.9s.28-1.13.53-1.82.09-2.61.73-2.94,1.1.45,1.74.63c.41.11,1.16.16,1.51-.1.18-.14.18-.28.45-.43,1.07-.56,1.4.1,2.18.53.39.22.93.5,1.33.66,1.15.45,3.91.8,4.63,1.6.85.94.24,1.58-.64,2.08-1.51.85-3.17.94-4.87,1-.86,9.17-6.48,17.47-14.09,22.43-10.82,7.05-24.52,7.85-36.25,2.49-9.89-4.52-17.52-13.9-18.63-24.92-1.96-.12-3.99-.05-5.68-1.23-.64-.45-.93-.91-.46-1.67.6-.97,3.73-1.36,4.93-1.85.33-.13.76-.35,1.06-.53.7-.41.94-.95,1.9-.75.56.12.71.55,1.07.69.51.2,1.26.05,1.73-.2s.81-.85,1.43-.4c.48.34.35,2.23.62,2.9.24.6,1.05.8.6,1.67-.64,1.23-2.94.89-4.09,1.06Z"/>
    <path class="cls-2" d="M36.76,19.84c4.25-.62,4.72,5.41,4.97,8.24.46,5.21.49,10.43.08,15.64-.25,3.26-.85,6.42-2.43,9.3-.92,1.67-1.97,3.35-4.19,2.51-2.91-1.09-3.23-5.12-3.93-7.72-.84-3.12-1.59-5.84-3.24-8.66-1.19-2.05-2.71-2.63-1.57-5.45.37-.91.68-.88,1.2-1.52,1.22-1.51.43-4.21-.54-5.69-.65-1.01-1.66-1.67-.77-3.04.79-1.2,3.64-1.04,4.97-1.26,1.85-.31,3.63-2.1,5.46-2.37ZM37.48,23.51c-.37.04-.48.39-.78.5-.5.2-1.56.04-1.91.41-.44.46.14.75.29,1.21.39,1.18-.59,1.25-.43,2.1.27.56.65,1.01.88,1.6.33.82.6,2.88,1.24,3.31,1.15.77,1.76-1.36,1.89-2.17.31-1.96-.14-3.98-.24-5.94-.1-.43-.44-1.05-.96-1Z"/>
    <path class="cls-2" d="M62.71,19.84c3.73-.55,4.74,5.75,4.97,8.32.46,5.15.48,10.33.08,15.48-.25,3.25-.81,6.39-2.38,9.27-.92,1.68-1.94,3.43-4.19,2.64-2.9-1.02-3.22-4.88-3.91-7.42-.87-3.2-1.62-6.08-3.32-8.98-1.08-1.84-2.51-2.44-1.75-4.99.36-1.19.73-1.18,1.38-1.98,1.14-1.39.5-3.92-.33-5.34-.63-1.09-1.87-1.87-1.04-3.29s4.06-1.08,5.54-1.48c1.61-.44,3.29-1.99,4.95-2.23ZM63.42,23.51c-.37.04-.48.39-.78.5-.48.19-1.73.05-2,.47s.25.74.39,1.14c.41,1.22-.6,1.19-.43,2.1.07.35.71,1.16.91,1.65.33.83.55,2.8,1.22,3.25.82.55,1.25-.28,1.53-.94.93-2.2.21-4.87.13-7.18-.1-.44-.44-1.05-.96-1Z"/>
  </g>
  <g>
    <g>
      <path class="cls-1" d="M133.24,18.77c-.17-.81-.4-1.62-.68-2.43-.29-.81-.57-1.59-.84-2.33-.27-.74-.51-1.45-.71-2.13-.2-.68-.3-1.28-.3-1.83,0-.57.19-1.02.58-1.34.39-.32.92-.57,1.6-.76.68-.19,1.48-.3,2.41-.35.93-.05,1.93-.08,3.02-.08,2.16,0,3.85.14,5.07.43,1.22.29,1.83.99,1.83,2.1,0,.64-.12,1.39-.35,2.23-.24.85-.49,1.74-.76,2.69-.27.95-.52,1.92-.76,2.92-.24,1-.35,1.99-.35,2.97v10.8c0,1.05.12,1.98.35,2.79.24.81.5,1.56.79,2.23.29.68.55,1.31.79,1.9.24.59.35,1.23.35,1.9,0,1.12-.62,1.82-1.85,2.1-1.23.29-2.93.43-5.1.43s-3.85-.14-5.05-.43c-1.2-.29-1.8-.99-1.8-2.1,0-.68.1-1.31.3-1.9.2-.59.43-1.23.68-1.9.25-.68.48-1.42.68-2.23.2-.81.3-1.74.3-2.79v-3.75c-.1.17-.27.34-.51.51-.24.17-.62.38-1.14.63-.52.25-1.24.57-2.15.94-1.01.41-1.86.83-2.54,1.27-.68.44-1.21.85-1.6,1.24s-.68.74-.86,1.06c-.19.32-.31.57-.38.74.17.64.36,1.23.58,1.75.22.52.43,1.03.63,1.52.2.49.38.97.53,1.44.15.47.23.96.23,1.47,0,1.12-.62,1.82-1.85,2.1-1.23.29-2.93.43-5.1.43s-3.85-.14-5.05-.43c-1.2-.29-1.8-.99-1.8-2.1,0-.68.1-1.31.3-1.9.2-.59.43-1.23.68-1.9.25-.68.48-1.42.68-2.23.2-.81.3-1.74.3-2.79v-10.8c0-.98-.14-1.97-.43-2.97-.29-1-.6-1.97-.94-2.92-.34-.95-.65-1.84-.94-2.69-.29-.84-.43-1.59-.43-2.23,0-.57.19-1.02.58-1.34.39-.32.92-.57,1.6-.76.68-.19,1.48-.3,2.41-.35.93-.05,1.93-.08,3.02-.08,2.16,0,3.85.14,5.07.43,1.22.29,1.83.99,1.83,2.1,0,.64-.12,1.39-.35,2.23-.24.85-.49,1.74-.76,2.69-.27.95-.52,1.92-.76,2.92-.24,1-.35,1.99-.35,2.97v4.36c.13-.17.41-.39.81-.66.37-.27.9-.58,1.6-.94.69-.35,1.63-.8,2.81-1.34,1.49-.68,2.51-1.32,3.07-1.93.56-.61.89-1.13.99-1.57Z"/>
      <path class="cls-1" d="M146.27,40.47c0-.68.14-1.26.43-1.75.29-.49.64-1.04,1.06-1.65.42-.61.9-1.33,1.42-2.18.52-.84,1.02-1.93,1.5-3.25l6.95-19.72c-.27-.27-.47-.56-.61-.86-.14-.3-.2-.64-.2-1.01,0-1.12.66-1.82,1.98-2.1,1.32-.29,3.06-.43,5.22-.43,1.08,0,2.09.02,3.02.08.93.05,1.73.17,2.41.35.68.19,1.21.44,1.6.76.39.32.58.77.58,1.34,0,.64-.04,1.17-.13,1.6-.08.42-.14.87-.15,1.34-.02.47.05,1.06.2,1.75.15.69.45,1.67.89,2.92l5.32,14.5c.41,1.12.86,2.05,1.37,2.79.51.74.99,1.42,1.45,2.03.46.61.84,1.17,1.14,1.7.3.52.46,1.12.46,1.8,0,.54-.2.98-.61,1.32-.41.34-.96.6-1.65.79-.69.19-1.5.3-2.43.35-.93.05-1.94.08-3.02.08s-2.09-.03-3.02-.08c-.93-.05-1.73-.17-2.41-.35-.68-.19-1.21-.45-1.6-.79-.39-.34-.58-.78-.58-1.32,0-.61.09-1.17.28-1.67.19-.51.35-1.05.51-1.62.15-.57.24-1.22.28-1.95.03-.73-.1-1.63-.41-2.71-.27.3-.69.67-1.27,1.09-.58.42-1.39.84-2.43,1.24-.3.14-.68.29-1.14.46-.46.17-.93.35-1.42.56-.49.2-.95.43-1.37.68-.42.25-.77.53-1.04.84.17.51.33,1,.48,1.47.15.47.23,1.01.23,1.62,0,.54-.22.98-.66,1.32-.44.34-1.01.6-1.7.79-.69.19-1.47.3-2.33.35-.86.05-1.7.08-2.51.08s-1.59-.03-2.33-.08c-.74-.05-1.39-.17-1.95-.35-.56-.19-1-.45-1.32-.79-.32-.34-.48-.78-.48-1.32ZM160.21,29.21c.17-.17.42-.36.76-.58.34-.22.79-.48,1.37-.79.81-.44,1.42-.95,1.83-1.55.41-.59.52-1.38.35-2.36l-1.27-3.5-3.04,8.77Z"/>
      <path class="cls-1" d="M183.18,10.05c0-.57.19-1.02.58-1.34.39-.32.92-.57,1.6-.76.68-.19,1.48-.3,2.41-.35.93-.05,1.93-.08,3.02-.08,1.49,0,2.75.06,3.78.18,1.03.12,1.82.38,2.36.79.68-.47,1.45-.84,2.33-1.09.88-.25,1.88-.38,2.99-.38,1.66,0,3.17.33,4.54.99s2.55,1.57,3.55,2.74c1,1.17,1.77,2.57,2.31,4.21.54,1.64.81,3.42.81,5.35,0,2.03-.25,3.94-.74,5.73-.49,1.79-1.23,3.35-2.21,4.69-.98,1.34-2.23,2.4-3.75,3.19-1.52.79-3.31,1.19-5.37,1.19-1.66,0-2.95-.25-3.88-.76-.93-.51-1.6-.98-2-1.42.1.85.28,1.61.53,2.28.25.68.51,1.31.76,1.9.25.59.47,1.16.66,1.7.19.54.28,1.1.28,1.67,0,1.12-.62,1.82-1.85,2.1-1.23.29-2.93.43-5.1.43s-3.85-.14-5.05-.43c-1.2-.29-1.8-.99-1.8-2.1,0-.68.1-1.31.3-1.9.2-.59.43-1.23.68-1.9.25-.68.48-1.42.68-2.23.2-.81.3-1.74.3-2.79v-10.8c0-.98-.14-1.97-.43-2.97-.29-1-.6-1.97-.94-2.92-.34-.95-.65-1.84-.94-2.69-.29-.84-.43-1.59-.43-2.23ZM195.45,23.48c.27.81.62,1.52,1.06,2.13.37.58.85,1.08,1.44,1.52.59.44,1.33.66,2.21.66.61,0,1.13-.19,1.57-.58.44-.39.79-.91,1.06-1.57.27-.66.46-1.43.56-2.31.1-.88.12-1.81.05-2.79-.07-.88-.24-1.72-.51-2.54-.27-.81-.61-1.52-1.01-2.13-.41-.61-.85-1.1-1.34-1.47-.49-.37-.97-.56-1.44-.56-.71,0-1.3.26-1.77.79-.47.52-.85,1.15-1.12,1.88-.27.73-.47,1.49-.58,2.28-.12.79-.18,1.48-.18,2.05v2.64Z"/>
      <path class="cls-1" d="M214.47,10.05c0-.57.19-1.02.58-1.34.39-.32.92-.57,1.6-.76.68-.19,1.48-.3,2.41-.35s1.93-.08,3.02-.08c1.49,0,2.75.06,3.78.18,1.03.12,1.82.38,2.36.79.68-.47,1.45-.84,2.33-1.09s1.88-.38,2.99-.38c1.66,0,3.17.33,4.54.99,1.37.66,2.55,1.57,3.55,2.74,1,1.17,1.77,2.57,2.31,4.21.54,1.64.81,3.42.81,5.35,0,2.03-.25,3.94-.74,5.73-.49,1.79-1.23,3.35-2.21,4.69-.98,1.34-2.23,2.4-3.75,3.19-1.52.79-3.31,1.19-5.37,1.19-1.66,0-2.95-.25-3.88-.76-.93-.51-1.6-.98-2-1.42.1.85.28,1.61.53,2.28.25.68.51,1.31.76,1.9.25.59.47,1.16.66,1.7.19.54.28,1.1.28,1.67,0,1.12-.62,1.82-1.85,2.1-1.23.29-2.93.43-5.1.43s-3.85-.14-5.04-.43c-1.2-.29-1.8-.99-1.8-2.1,0-.68.1-1.31.3-1.9.2-.59.43-1.23.68-1.9.25-.68.48-1.42.68-2.23.2-.81.3-1.74.3-2.79v-10.8c0-.98-.14-1.97-.43-2.97-.29-1-.6-1.97-.94-2.92-.34-.95-.65-1.84-.94-2.69-.29-.84-.43-1.59-.43-2.23ZM226.74,23.48c.27.81.62,1.52,1.06,2.13.37.58.85,1.08,1.45,1.52.59.44,1.33.66,2.21.66.61,0,1.13-.19,1.57-.58.44-.39.79-.91,1.07-1.57.27-.66.46-1.43.56-2.31.1-.88.12-1.81.05-2.79-.07-.88-.24-1.72-.51-2.54-.27-.81-.61-1.52-1.01-2.13-.41-.61-.85-1.1-1.34-1.47-.49-.37-.97-.56-1.45-.56-.71,0-1.3.26-1.77.79-.47.52-.84,1.15-1.12,1.88-.27.73-.46,1.49-.58,2.28-.12.79-.18,1.48-.18,2.05v2.64Z"/>
      <path class="cls-1" d="M245.75,10.6c0-.71.2-1.27.61-1.67.41-.41.96-.71,1.67-.91s1.55-.34,2.54-.41c.98-.07,2.04-.1,3.19-.1,1.39,0,2.58.02,3.57.08s1.83.19,2.48.41c.66.22,1.15.54,1.47.96.32.42.48.99.48,1.7,0,.44.02.96.05,1.57.03.61.14,1.35.33,2.23.19.88.49,1.94.91,3.17.42,1.23,1.01,2.71,1.75,4.44.91-2.4,1.69-4.55,2.33-6.44.64-1.89.96-3.75.96-5.58,0-.57.15-1.02.46-1.34.3-.32.72-.57,1.24-.76.52-.19,1.16-.3,1.9-.35.74-.05,1.54-.08,2.38-.08,1.08,0,2.07.02,2.97.08s1.67.17,2.31.35c.64.19,1.14.44,1.5.76.35.32.53.77.53,1.34s-.13,1.11-.38,1.6c-.25.49-.63,1.01-1.14,1.57s-1.12,1.22-1.83,1.98c-.71.76-1.52,1.7-2.43,2.81-.91,1.12-1.92,2.48-3.02,4.11s-2.27,3.57-3.52,5.83v3.7c0,1.05.12,1.98.35,2.79.24.81.5,1.56.79,2.23.29.68.55,1.31.79,1.9.24.59.35,1.23.35,1.9,0,1.12-.62,1.82-1.85,2.1-1.23.29-2.93.43-5.1.43s-3.85-.14-5.04-.43c-1.2-.29-1.8-.99-1.8-2.1,0-.68.1-1.31.3-1.9.2-.59.43-1.23.68-1.9.25-.68.48-1.42.68-2.23.2-.81.3-1.74.3-2.79v-3.6c-1.32-2.2-2.57-4.07-3.75-5.63-1.18-1.55-2.29-2.87-3.32-3.96-1.03-1.08-1.96-1.98-2.79-2.69s-1.53-1.34-2.1-1.9c-.58-.56-1.02-1.09-1.34-1.6-.32-.51-.48-1.06-.48-1.67Z"/>
      <path class="cls-1" d="M303.6,7.51c1.66,0,3.1.34,4.33,1.01,1.23.68,2.32,1.56,3.25,2.66.93,1.1,1.75,2.33,2.46,3.7.71,1.37,1.37,2.76,1.98,4.18l1.62,3.7,4.31-10.5c.47-1.12.97-1.99,1.5-2.64.52-.64,1.13-1.12,1.83-1.45.69-.32,1.51-.51,2.46-.58.95-.07,2.06-.1,3.35-.1h2.03c1.86.03,3.3.21,4.33.53,1.03.32,1.55.99,1.55,2,0,.64-.12,1.39-.36,2.23-.24.85-.49,1.74-.76,2.69-.27.95-.52,1.92-.76,2.92-.24,1-.36,1.99-.36,2.97v10.8c0,1.05.12,1.98.36,2.79.24.81.5,1.56.79,2.23.29.68.55,1.31.79,1.9.24.59.36,1.23.36,1.9,0,1.12-.62,1.82-1.85,2.1-1.23.29-2.93.43-5.1.43s-3.84-.14-5.04-.43c-1.2-.29-1.8-.99-1.8-2.1,0-.68.1-1.31.3-1.9.2-.59.43-1.23.68-1.9.25-.68.48-1.42.68-2.23.2-.81.3-1.74.3-2.79v-10.8c0-.24,0-.46-.03-.68-.02-.22-.04-.43-.08-.63l-5.27,11.92c-.37.85-.52,1.66-.43,2.43.08.78.25,1.55.51,2.31.25.76.52,1.52.79,2.28.27.76.41,1.55.41,2.36,0,.95-.61,1.55-1.83,1.8s-2.84.38-4.87.38-3.55-.14-4.56-.43c-1.01-.29-1.52-.99-1.52-2.1,0-.68.1-1.34.3-2,.2-.66.4-1.34.58-2.05.19-.71.28-1.45.28-2.23s-.2-1.62-.61-2.54l-5.42-12.37v12.37c0,.81.14,1.61.43,2.38.29.78.61,1.53.96,2.26.35.73.68,1.44.96,2.13.29.69.43,1.38.43,2.05,0,.54-.2.98-.61,1.32-.41.34-.93.6-1.57.79-.64.19-1.37.3-2.18.35-.81.05-1.62.08-2.43.08s-1.61-.03-2.38-.08c-.78-.05-1.47-.17-2.08-.35-.61-.19-1.1-.45-1.47-.79-.37-.34-.56-.78-.56-1.32,0-.68.11-1.36.33-2.05.22-.69.47-1.4.76-2.13.29-.73.54-1.48.76-2.26.22-.78.33-1.57.33-2.38v-12.78c0-.81-.11-1.6-.33-2.38-.22-.78-.47-1.53-.76-2.26-.29-.73-.54-1.45-.76-2.16-.22-.71-.33-1.39-.33-2.03,0-.57.19-1.02.56-1.34.37-.32.86-.57,1.47-.76.61-.19,1.3-.3,2.08-.35.78-.05,1.57-.08,2.38-.08h2.54Z"/>
      <path class="cls-1" d="M339.65,10.05c0-.57.19-1.02.58-1.34.39-.32.92-.57,1.6-.76.68-.19,1.48-.3,2.41-.35s1.93-.08,3.02-.08c2.16,0,3.85.14,5.07.43,1.22.29,1.83.99,1.83,2.1,0,.64-.12,1.39-.36,2.23-.24.85-.49,1.74-.76,2.69-.27.95-.52,1.92-.76,2.92-.24,1-.36,1.99-.36,2.97v10.8c0,1.05.12,1.98.36,2.79.24.81.5,1.56.79,2.23.29.68.55,1.31.79,1.9.24.59.36,1.23.36,1.9,0,1.12-.62,1.82-1.85,2.1-1.23.29-2.93.43-5.1.43s-3.85-.14-5.04-.43c-1.2-.29-1.8-.99-1.8-2.1,0-.68.1-1.31.3-1.9.2-.59.43-1.23.68-1.9.25-.68.48-1.42.68-2.23.2-.81.3-1.74.3-2.79v-10.8c0-.98-.14-1.97-.43-2.97-.29-1-.6-1.97-.94-2.92-.34-.95-.65-1.84-.94-2.69-.29-.84-.43-1.59-.43-2.23Z"/>
      <path class="cls-1" d="M362.82,7.51c2.16,0,3.85.14,5.07.43,1.22.29,1.83.99,1.83,2.1,0,.64-.12,1.39-.36,2.23-.24.85-.49,1.74-.76,2.69-.27.95-.52,1.92-.76,2.92-.24,1-.36,1.99-.36,2.97v10.8c0,1.15.13,1.94.38,2.38.25.44.87.66,1.85.66h.05c.68,0,1.32-.22,1.93-.66.61-.44,1.4-1.25,2.38-2.43.47-.54.99-.93,1.55-1.17.56-.24,1.14-.37,1.75-.41.88,0,1.73.21,2.56.63.83.42,1.53.98,2.1,1.67.58.69.96,1.49,1.14,2.38.18.9.08,1.82-.33,2.76-.34.81-.79,1.56-1.37,2.23-.58.68-1.32,1.26-2.23,1.75-.91.49-2.02.87-3.32,1.14-1.3.27-2.88.41-4.74.41h-8.37c-2.16,0-3.85-.14-5.04-.43-1.2-.29-1.8-.99-1.8-2.1,0-.68.1-1.31.3-1.9.2-.59.43-1.23.68-1.9.25-.68.48-1.42.68-2.23.2-.81.3-1.74.3-2.79v-10.8c0-.98-.14-1.97-.43-2.97-.29-1-.6-1.97-.94-2.92-.34-.95-.65-1.84-.94-2.69-.29-.84-.43-1.59-.43-2.23,0-.57.19-1.02.58-1.34.39-.32.92-.57,1.6-.76.68-.19,1.48-.3,2.41-.35s1.93-.08,3.02-.08Z"/>
      <path class="cls-1" d="M391.88,7.51h10.6c1.49,0,2.89.17,4.21.51,1.32.34,2.48.87,3.47,1.6,1,.73,1.78,1.67,2.36,2.81.57,1.15.86,2.55.86,4.21,0,.64-.13,1.19-.38,1.65-.25.46-.6.83-1.04,1.12-.44.29-.93.51-1.47.66-.54.15-1.12.23-1.72.23-.64,0-1.29-.08-1.95-.23-.66-.15-1.26-.36-1.8-.63-.54-.27-1.01-.6-1.39-.99s-.63-.8-.74-1.24c-.2-.81-.52-1.41-.94-1.8-.42-.39-1.04-.58-1.85-.58h-1.17c-.61,0-1.07.18-1.39.53-.32.35-.56.82-.71,1.39-.15.58-.24,1.22-.25,1.93-.02.71-.03,1.44-.03,2.18v.41c.68-.2,1.22-.41,1.65-.63.42-.22.78-.41,1.06-.58.29-.17.53-.3.74-.41.2-.1.44-.15.71-.15.37,0,.68.14.91.43.24.29.44.66.61,1.12.17.46.29.97.36,1.55.07.58.1,1.13.1,1.67v2.03c0,.54-.03,1.08-.1,1.62-.07.54-.19,1.04-.36,1.5-.17.46-.37.83-.61,1.12-.24.29-.54.43-.91.43-.27,0-.51-.05-.71-.15-.2-.1-.45-.24-.74-.41-.29-.17-.64-.36-1.06-.58-.42-.22-.97-.43-1.65-.63v2.48c0,1.15.13,1.94.38,2.38.25.44.87.66,1.85.66h.05c.68,0,1.32-.22,1.93-.66.61-.44,1.4-1.25,2.38-2.43.47-.54.99-.93,1.55-1.17.56-.24,1.14-.35,1.75-.35.88,0,1.73.21,2.56.63.83.42,1.53.98,2.1,1.67.58.69.96,1.48,1.14,2.36.18.88.08,1.79-.33,2.74-.34.81-.79,1.56-1.37,2.23-.58.68-1.32,1.26-2.23,1.75-.91.49-2.02.87-3.32,1.14-1.3.27-2.88.41-4.74.41h-8.37c-2.16,0-3.85-.14-5.04-.43-1.2-.29-1.8-.99-1.8-2.1,0-.68.1-1.31.3-1.9.2-.59.43-1.23.68-1.9.25-.68.48-1.42.68-2.23.2-.81.3-1.74.3-2.79v-10.8c0-.98-.14-1.97-.43-2.97-.29-1-.6-1.96-.94-2.89-.34-.93-.65-1.81-.94-2.64-.29-.83-.43-1.56-.43-2.21,0-.57.19-1.04.58-1.39s.92-.62,1.6-.81c.68-.19,1.48-.3,2.41-.35s1.93-.08,3.02-.08Z"/>
    </g>
    <g>
      <path class="cls-1" d="M112.2,55.88c0-.57.19-1.02.58-1.34.39-.32.92-.57,1.6-.76.68-.19,1.48-.3,2.41-.35.93-.05,1.93-.08,3.02-.08,1.59,0,2.92.07,3.98.2,1.06.14,1.85.44,2.36.91.71-.47,1.53-.86,2.46-1.17.93-.3,1.99-.46,3.17-.46,1.66,0,3.14.37,4.46,1.12,1.32.74,2.44,1.74,3.37,2.99.93,1.25,1.64,2.67,2.13,4.26.49,1.59.74,3.23.74,4.92,0,1.96-.32,3.85-.96,5.68-.64,1.83-1.57,3.41-2.79,4.77.34.34.67.75.99,1.24.32.49.57,1.11.73,1.85.2.91.46,1.68.79,2.31.32.63.63,1.18.94,1.65.3.47.56.92.76,1.34.2.42.3.87.3,1.34,0,1.12-.53,1.82-1.6,2.1-1.06.29-2.68.43-4.84.43s-3.76-.14-4.79-.43c-1.03-.29-1.55-.99-1.55-2.1,0-.54.06-1.08.18-1.62.12-.54.23-1.06.33-1.57.1-.51.16-1.01.18-1.5.02-.49-.08-.97-.28-1.45-1.76,0-3.15-.28-4.18-.84-1.03-.56-1.77-1.06-2.21-1.5.03.98.17,1.86.41,2.64.24.78.5,1.49.79,2.13.29.64.54,1.26.76,1.85.22.59.33,1.21.33,1.85,0,1.12-.62,1.82-1.85,2.1-1.23.29-2.93.43-5.1.43s-3.85-.14-5.05-.43c-1.2-.29-1.8-.99-1.8-2.1,0-.68.1-1.31.3-1.9.2-.59.43-1.23.68-1.9.25-.68.48-1.42.68-2.23.2-.81.3-1.74.3-2.79v-10.8c0-.98-.14-1.97-.43-2.97-.29-1-.6-1.97-.94-2.92-.34-.95-.65-1.84-.94-2.69-.29-.84-.43-1.59-.43-2.23ZM129.44,72.66c.54,0,1.05-.2,1.52-.61.47-.41.87-.96,1.19-1.67.32-.71.55-1.54.68-2.48.13-.95.13-1.94,0-2.99-.17-1.12-.43-2.04-.79-2.79-.35-.74-.74-1.33-1.14-1.77-.41-.44-.84-.74-1.29-.91-.46-.17-.87-.25-1.24-.25-.74,0-1.37.28-1.88.84-.51.56-.91,1.23-1.22,2.03-.3.79-.52,1.62-.63,2.48-.12.86-.18,1.58-.18,2.15v.71c.41,1.62,1.09,2.91,2.05,3.85.96.95,1.93,1.42,2.92,1.42Z"/>
      <path class="cls-1" d="M151.59,53.35c1.08,0,2.09.02,3.02.08.93.05,1.74.17,2.43.35.69.19,1.23.44,1.62.76.39.32.58.77.58,1.34,0,.64-.12,1.39-.35,2.23-.24.85-.49,1.74-.76,2.69-.27.95-.52,1.92-.76,2.92-.24,1-.35,1.99-.35,2.97v9.23c0,.88.13,1.64.38,2.28.25.64.59,1.17,1.01,1.6.42.42.9.74,1.42.94.52.2,1.06.3,1.6.3s1.06-.1,1.57-.3c.51-.2.96-.51,1.37-.94.41-.42.73-.95.99-1.6.25-.64.38-1.4.38-2.28v-9.23c0-.98-.11-1.97-.33-2.97-.22-1-.47-1.97-.76-2.92-.29-.95-.54-1.84-.76-2.69-.22-.84-.33-1.59-.33-2.23,0-.57.19-1.02.58-1.34.39-.32.9-.57,1.55-.76.64-.19,1.37-.3,2.18-.35.81-.05,1.62-.08,2.43-.08s1.64.02,2.48.08c.84.05,1.6.17,2.28.35.68.19,1.23.44,1.65.76.42.32.63.77.63,1.34,0,.64-.14,1.39-.43,2.23-.29.85-.61,1.74-.96,2.69-.35.95-.68,1.92-.96,2.92-.29,1-.43,1.99-.43,2.97v10.75c0,1.62-.3,3.16-.89,4.61-.59,1.45-1.46,2.72-2.61,3.8-1.15,1.08-2.57,1.94-4.26,2.56-1.69.63-3.65.94-5.88.94s-4.21-.31-5.93-.94c-1.72-.62-3.18-1.48-4.36-2.56-1.18-1.08-2.09-2.35-2.71-3.8-.63-1.45-.94-2.99-.94-4.61v-10.75c0-.98-.14-1.97-.43-2.97-.29-1-.6-1.97-.94-2.92-.34-.95-.65-1.84-.94-2.69-.29-.84-.43-1.59-.43-2.23,0-.57.18-1.02.53-1.34.35-.32.86-.57,1.52-.76.66-.19,1.44-.3,2.33-.35.9-.05,1.88-.08,2.97-.08Z"/>
      <path class="cls-1" d="M178.36,55.88c0-.57.19-1.02.58-1.34.39-.32.92-.57,1.6-.76.68-.19,1.5-.3,2.48-.35.98-.05,2.04-.08,3.19-.08,1.42,0,2.56.12,3.42.35.86.24,1.55.57,2.08.99.52.42.9.91,1.14,1.47.24.56.42,1.16.56,1.8.13.64.25,1.32.35,2.03.1.71.29,1.42.56,2.13.34.91.77,1.74,1.29,2.48.52.74,1.12,1.45,1.77,2.13.66.68,1.35,1.33,2.08,1.95.73.63,1.44,1.28,2.15,1.95v-5.93c0-.81-.11-1.6-.33-2.38-.22-.78-.47-1.53-.76-2.26-.29-.73-.54-1.45-.76-2.16-.22-.71-.33-1.39-.33-2.03,0-.57.19-1.02.56-1.34.37-.32.86-.57,1.47-.76.61-.19,1.3-.3,2.08-.35.78-.05,1.57-.08,2.38-.08s1.62.02,2.43.08c.81.05,1.54.17,2.18.35.64.19,1.17.44,1.57.76.41.32.61.77.61,1.34,0,.64-.14,1.32-.43,2.03-.29.71-.61,1.43-.96,2.16-.35.73-.68,1.48-.96,2.26-.29.78-.43,1.57-.43,2.38v12.78c0,.81.14,1.61.43,2.38.29.78.61,1.53.96,2.26.35.73.68,1.44.96,2.13.29.69.43,1.38.43,2.05,0,.54-.2.98-.61,1.32-.41.34-.93.6-1.57.79-.64.19-1.38.3-2.21.35-.83.05-1.67.08-2.51.08h-1.62c-.98,0-1.82-.04-2.51-.13-.69-.08-1.26-.32-1.7-.71-.44-.39-.76-.97-.96-1.75-.2-.78-.3-1.86-.3-3.25,0-1.08-.38-2.16-1.14-3.25-.76-1.08-1.67-2.18-2.71-3.3-1.05-1.12-2.13-2.23-3.25-3.35-1.12-1.12-2.05-2.25-2.79-3.4v7.76c0,.81.14,1.61.43,2.38.29.78.61,1.53.96,2.26.35.73.68,1.44.96,2.13.29.69.43,1.38.43,2.05,0,.54-.2.98-.61,1.32-.41.34-.93.6-1.57.79-.64.19-1.37.3-2.18.35-.81.05-1.62.08-2.43.08s-1.61-.03-2.38-.08c-.78-.05-1.47-.17-2.08-.35-.61-.19-1.1-.45-1.47-.79-.37-.34-.56-.78-.56-1.32,0-.68.11-1.36.33-2.05.22-.69.47-1.4.76-2.13.29-.73.54-1.48.76-2.26.22-.78.33-1.57.33-2.38v-12.78c0-.81-.11-1.6-.33-2.38-.22-.78-.47-1.53-.76-2.26-.29-.73-.54-1.45-.76-2.16-.22-.71-.33-1.39-.33-2.03Z"/>
      <path class="cls-1" d="M225.92,70.59c0-2.33.32-4.56.96-6.69.64-2.13,1.6-4.01,2.86-5.65,1.27-1.64,2.87-2.95,4.79-3.93s4.17-1.47,6.74-1.47c1.79,0,3.45.35,4.97,1.06,1.52.71,2.83,1.67,3.93,2.86,1.1,1.2,1.95,2.57,2.56,4.11.61,1.54.91,3.15.91,4.84,0,.64-.14,1.19-.41,1.65-.27.46-.63.84-1.09,1.14-.46.3-.98.53-1.57.68-.59.15-1.21.23-1.85.23-1.29,0-2.48-.29-3.6-.86-1.12-.57-1.81-1.4-2.08-2.48-.51-2.26-1.07-3.81-1.7-4.64-.63-.83-1.24-1.24-1.85-1.24-.17,0-.29.02-.35.05-.64.3-1.17.83-1.57,1.57-.41.74-.71,1.62-.91,2.64-.2,1.01-.3,2.15-.3,3.4s.07,2.55.2,3.9c.34,3.18.96,5.52,1.88,7.02.91,1.5,2.11,2.26,3.6,2.26.61,0,1.1-.11,1.47-.33.37-.22.7-.53.99-.94.29-.41.57-.88.86-1.42.29-.54.63-1.12,1.04-1.72.27-.37.71-.66,1.32-.86.61-.2,1.27-.3,1.98-.3.64,0,1.27.09,1.88.28.61.19,1.12.48,1.55.89.42.41.69.92.81,1.55.12.63,0,1.39-.38,2.31-.34.81-.81,1.73-1.42,2.76-.61,1.03-1.42,2-2.43,2.89-1.01.9-2.24,1.66-3.68,2.28-1.44.63-3.15.94-5.15.94-2.16,0-4.17-.47-6.01-1.42-1.84-.95-3.42-2.26-4.74-3.93s-2.35-3.65-3.09-5.93c-.74-2.28-1.12-4.77-1.12-7.48Z"/>
      <path class="cls-1" d="M262.58,53.35c2.16,0,3.85.14,5.07.43,1.22.29,1.83.99,1.83,2.1,0,.64-.12,1.39-.36,2.23-.24.85-.49,1.74-.76,2.69-.27.95-.52,1.92-.76,2.92-.24,1-.36,1.99-.36,2.97v10.8c0,1.15.13,1.94.38,2.38.25.44.87.66,1.85.66h.05c.68,0,1.32-.22,1.93-.66.61-.44,1.4-1.25,2.38-2.43.47-.54.99-.93,1.55-1.17.56-.24,1.14-.37,1.75-.41.88,0,1.73.21,2.56.63.83.42,1.53.98,2.1,1.67.58.69.96,1.49,1.14,2.38.18.9.08,1.82-.33,2.76-.34.81-.79,1.56-1.37,2.23-.58.68-1.32,1.26-2.23,1.75-.91.49-2.02.87-3.32,1.14-1.3.27-2.88.41-4.74.41h-8.37c-2.16,0-3.85-.14-5.04-.43-1.2-.29-1.8-.99-1.8-2.1,0-.68.1-1.31.3-1.9.2-.59.43-1.23.68-1.9.25-.68.48-1.42.68-2.23.2-.81.3-1.74.3-2.79v-10.8c0-.98-.14-1.97-.43-2.97-.29-1-.6-1.97-.94-2.92-.34-.95-.65-1.84-.94-2.69-.29-.84-.43-1.59-.43-2.23,0-.57.19-1.02.58-1.34.39-.32.92-.57,1.6-.76.68-.19,1.48-.3,2.41-.35s1.93-.08,3.02-.08Z"/>
      <path class="cls-1" d="M291.38,53.35c1.08,0,2.09.02,3.02.08s1.74.17,2.43.35c.69.19,1.23.44,1.62.76.39.32.58.77.58,1.34,0,.64-.12,1.39-.36,2.23-.24.85-.49,1.74-.76,2.69-.27.95-.52,1.92-.76,2.92-.24,1-.36,1.99-.36,2.97v9.23c0,.88.13,1.64.38,2.28.25.64.59,1.17,1.01,1.6.42.42.9.74,1.42.94.52.2,1.06.3,1.6.3s1.07-.1,1.57-.3c.51-.2.96-.51,1.37-.94.41-.42.74-.95.99-1.6.25-.64.38-1.4.38-2.28v-9.23c0-.98-.11-1.97-.33-2.97-.22-1-.47-1.97-.76-2.92-.29-.95-.54-1.84-.76-2.69-.22-.84-.33-1.59-.33-2.23,0-.57.19-1.02.58-1.34.39-.32.9-.57,1.55-.76.64-.19,1.37-.3,2.18-.35.81-.05,1.62-.08,2.43-.08s1.64.02,2.48.08c.84.05,1.6.17,2.28.35.68.19,1.22.44,1.65.76.42.32.63.77.63,1.34,0,.64-.14,1.39-.43,2.23-.29.85-.61,1.74-.96,2.69-.36.95-.68,1.92-.96,2.92-.29,1-.43,1.99-.43,2.97v10.75c0,1.62-.3,3.16-.89,4.61-.59,1.45-1.46,2.72-2.61,3.8-1.15,1.08-2.57,1.94-4.26,2.56-1.69.63-3.65.94-5.88.94s-4.21-.31-5.93-.94c-1.72-.62-3.18-1.48-4.36-2.56-1.18-1.08-2.09-2.35-2.71-3.8-.62-1.45-.94-2.99-.94-4.61v-10.75c0-.98-.14-1.97-.43-2.97-.29-1-.6-1.97-.94-2.92-.34-.95-.65-1.84-.94-2.69-.29-.84-.43-1.59-.43-2.23,0-.57.18-1.02.53-1.34.36-.32.86-.57,1.52-.76.66-.19,1.44-.3,2.33-.35s1.88-.08,2.97-.08Z"/>
      <path class="cls-1" d="M325.76,53.35c1.89,0,3.42.1,4.59.3,1.17.2,1.88.69,2.16,1.47.78-.68,1.67-1.22,2.69-1.65,1.01-.42,2.21-.63,3.6-.63,1.62,0,3.04.25,4.26.74,1.22.49,2.21,1.16,2.99,2,.78.85,1.36,1.83,1.75,2.94.39,1.12.58,2.28.58,3.5,0,1.08-.13,2.03-.38,2.84-.25.81-.55,1.5-.89,2.08-.37.61-.79,1.13-1.27,1.57.71.47,1.35,1.13,1.93,1.98.47.68.91,1.6,1.32,2.76.41,1.17.61,2.63.61,4.39,0,1.45-.23,2.88-.68,4.28-.46,1.4-1.15,2.65-2.08,3.75-.93,1.1-2.11,1.99-3.55,2.66-1.44.68-3.15,1.01-5.15,1.01-1.29,0-2.43-.16-3.42-.48s-1.88-.7-2.66-1.14c-.47.47-1.26.78-2.36.91-1.1.14-2.44.2-4.03.2-2.16,0-3.85-.14-5.04-.43-1.2-.29-1.8-.99-1.8-2.1,0-.68.1-1.31.3-1.9.2-.59.43-1.23.68-1.9.25-.68.48-1.42.68-2.23.2-.81.3-1.74.3-2.79v-10.8c0-.98-.14-1.97-.43-2.97-.29-1-.6-1.97-.94-2.92-.34-.95-.65-1.84-.94-2.69-.29-.84-.43-1.59-.43-2.23,0-.57.19-1.02.58-1.34.39-.32.92-.57,1.6-.76.68-.19,1.48-.3,2.41-.35s1.93-.08,3.02-.08ZM338.54,63.99c-.03-.95-.35-1.6-.96-1.95-.61-.35-1.27-.53-1.98-.53-1.18,0-2.21.39-3.09,1.17-.88.78-1.56,1.69-2.03,2.74-.03.24-.05.46-.05.66v2.89c.81-.41,1.7-.71,2.66-.91.96-.2,1.85-.44,2.66-.71.81-.27,1.49-.64,2.03-1.12.54-.47.79-1.22.76-2.23ZM330.42,76.72v.96c.13,1.39.69,2.46,1.67,3.22.98.76,2.13,1.12,3.45,1.09.47,0,.96-.06,1.45-.18.49-.12.93-.31,1.32-.58.39-.27.71-.63.96-1.09.25-.46.38-1.04.38-1.75,0-.64-.15-1.23-.46-1.75-.3-.52-.69-.98-1.17-1.37-.47-.39-1.02-.68-1.65-.86-.63-.19-1.24-.28-1.85-.28-.34,0-.74.06-1.22.18-.47.12-.92.29-1.34.51-.42.22-.78.49-1.07.81-.29.32-.45.68-.48,1.09Z"/>
    </g>
  </g>
</svg>