<?xml version="1.0" encoding="UTF-8"?>
<svg id="Layer_1" data-name="Layer 1" xmlns="http://www.w3.org/2000/svg" viewBox="0 0 603.57 603.38">
  <defs>
    <style>
      .cls-1 {
        fill: #030303;
      }

      .cls-2 {
        fill: #eff0f1;
      }

      .cls-3 {
        fill: #fafafa;
      }

      .cls-4 {
        fill: #8c8660;
      }

      .cls-5 {
        fill: #f7de50;
      }
    </style>
  </defs>
  <path class="cls-1" d="M285.89.31c181.06-7.94,328.13,139.66,317.1,321.1-8.54,140.53-117.27,258.32-256.33,278.67C147.52,629.22-23.09,461.5,2.56,261.98,20.86,119.7,142.06,6.61,285.89.31ZM22.49,294.66c-.83.52-.5,1.9-.51,2.74-.04,3.61-.37,7.82.51,11.26,2.2,136.24,107.16,252.95,242.32,270.43,177.66,22.98,330.75-123.28,315.67-301.67-11.34-134.13-118.78-242.01-252.75-254.25C167.1,8.48,25.1,133.19,22.49,294.66Z"/>
  <path class="cls-5" d="M22.49,308.66c-.07-4.65-.07-9.35,0-14C25.1,133.19,167.1,8.48,327.74,23.16c133.97,12.24,241.41,120.12,252.75,254.25,15.08,178.4-138.01,324.65-315.67,301.67-135.16-17.48-240.12-134.19-242.32-270.43ZM230.37,124.29c-11.47,1.68-22.59,12.89-34.18,14.82-8.3,1.38-26.19.37-31.12,7.88-5.58,8.53.72,12.7,4.82,19.01,6.04,9.3,10.98,26.18,3.35,35.66-3.21,4-5.2,3.8-7.5,9.5-7.13,17.66,2.34,21.34,9.83,34.16,10.31,17.67,14.98,34.69,20.27,54.23,4.41,16.29,6.42,41.5,24.65,48.35,13.88,5.22,20.49-5.27,26.25-15.73,9.93-18.04,13.64-37.85,15.23-58.27,2.56-32.67,2.39-65.33-.5-97.99-1.57-17.72-4.46-55.52-31.11-51.62ZM392.87,124.29c-10.37,1.52-20.92,11.21-31,14-9.28,2.56-29.53.44-34.7,9.3s2.57,13.78,6.53,20.61c5.16,8.91,9.17,24.74,2.05,33.47-4.07,4.98-6.38,4.93-8.61,12.39-4.79,16.01,4.18,19.75,10.94,31.27,10.64,18.12,15.34,36.16,20.77,56.23,4.31,15.91,6.34,40.13,24.5,46.5,14.08,4.94,20.48-6.02,26.22-16.55,9.83-18.04,13.34-37.74,14.91-58.09,2.5-32.28,2.38-64.7-.5-96.99-1.43-16.08-7.76-55.54-31.11-52.12ZM105.5,350.16c7.18-1.07,21.57,1.03,25.6-6.65,2.84-5.42-2.26-6.71-3.75-10.45-1.66-4.18-.88-15.99-3.86-18.14-3.87-2.8-6.11,1.02-8.96,2.52s-7.65,2.51-10.81,1.26c-2.26-.89-3.16-3.58-6.68-4.31-6.02-1.25-7.46,2.09-11.88,4.68-1.91,1.12-4.62,2.51-6.66,3.34-7.52,3.05-27.14,5.5-30.91,11.59-2.97,4.79-1.16,7.67,2.85,10.49,10.54,7.39,23.29,6.92,35.56,7.69,6.91,69,54.7,127.76,116.67,156.08,73.49,33.58,159.31,28.59,227.1-15.58,47.65-31.05,82.88-83.08,88.24-140.51,10.62-.36,21.08-.91,30.51-6.24,5.51-3.12,9.31-7.1,3.99-13.01-4.51-5.01-21.79-7.18-28.99-10.01-2.53-1-5.92-2.81-8.34-4.16-4.91-2.74-6.96-6.85-13.67-3.34-1.72.9-1.67,1.83-2.82,2.68-2.18,1.63-6.92,1.31-9.45.6-4.03-1.13-6.87-6.06-10.91-3.96-4.01,2.08-2.93,13.9-4.58,18.42s-7.22,5.29-3.34,11.37,18.31,5.09,24.86,5.64c.47.04,2.21.3,2.25.79-10.82,43.08-35.77,79.88-71.56,105.9-43,31.27-92.57,44.01-145.69,38.8-82.45-8.09-154.78-63.83-174.75-145.49Z"/>
  <path class="cls-4" d="M22.49,308.66c-.88-3.44-.55-7.65-.51-11.26,0-.85-.32-2.22.51-2.74-.07,4.65-.07,9.35,0,14Z"/>
  <path class="cls-1" d="M105.5,350.16c19.97,81.66,92.3,137.41,174.75,145.49,53.13,5.21,102.7-7.54,145.69-38.8,35.79-26.03,60.74-62.82,71.56-105.9-.05-.49-1.78-.76-2.25-.79-6.55-.55-20.9.57-24.86-5.64s1.77-7.06,3.34-11.37.57-16.34,4.58-18.42c4.04-2.1,6.88,2.83,10.91,3.96,2.54.71,7.28,1.03,9.45-.6,1.15-.86,1.1-1.78,2.82-2.68,6.71-3.51,8.76.6,13.67,3.34,2.42,1.35,5.81,3.16,8.34,4.16,7.2,2.83,24.47,5,28.99,10.01,5.32,5.91,1.52,9.89-3.99,13.01-9.43,5.34-19.88,5.88-30.51,6.24-5.36,57.42-40.59,109.46-88.24,140.51-67.79,44.16-153.61,49.16-227.1,15.58-61.97-28.32-109.76-87.08-116.67-156.08-12.27-.77-25.02-.3-35.56-7.69-4.02-2.82-5.82-5.69-2.85-10.49,3.77-6.09,23.39-8.54,30.91-11.59,2.04-.83,4.75-2.22,6.66-3.34,4.41-2.59,5.86-5.93,11.88-4.68,3.52.73,4.43,3.43,6.68,4.31,3.17,1.25,7.88.28,10.81-1.26s5.09-5.31,8.96-2.52c2.98,2.15,2.2,13.96,3.86,18.14,1.49,3.74,6.59,5.03,3.75,10.45-4.03,7.68-18.42,5.59-25.6,6.65Z"/>
  <path class="cls-1" d="M230.37,124.29c26.65-3.9,29.55,33.9,31.11,51.62,2.89,32.66,3.06,65.32.5,97.99-1.6,20.42-5.3,40.23-15.23,58.27-5.76,10.47-12.37,20.95-26.25,15.73-18.23-6.85-20.24-32.06-24.65-48.35-5.29-19.54-9.96-36.56-20.27-54.23-7.48-12.82-16.95-16.49-9.83-34.16,2.3-5.7,4.28-5.51,7.5-9.5,7.63-9.49,2.69-26.36-3.35-35.66-4.1-6.31-10.41-10.48-4.82-19.01,4.92-7.52,22.81-6.51,31.12-7.88,11.6-1.92,22.71-13.14,34.18-14.82ZM234.86,147.26c-2.29.23-3,2.42-4.86,3.15-3.13,1.23-9.79.27-11.94,2.55-2.75,2.91.87,4.69,1.82,7.55,2.46,7.38-3.67,7.84-2.68,13.15,1.68,3.51,4.05,6.3,5.54,10,2.07,5.13,3.78,18.04,7.78,20.72,5.38,3.6,8.4-2.56,10.07-6.89,2.41-6.24,2.72-14.92,2.4-21.59-.38-7.99-1.41-17.62-3.22-25.28-.91-1.78-2.76-3.58-4.91-3.37Z"/>
  <path class="cls-1" d="M392.87,124.29c23.36-3.42,29.68,36.04,31.11,52.12,2.88,32.29,3,64.71.5,96.99-1.57,20.35-5.08,40.05-14.91,58.09-5.74,10.54-12.14,21.49-26.22,16.55-18.16-6.37-20.2-30.59-24.5-46.5-5.43-20.06-10.13-38.11-20.77-56.23-6.77-11.52-15.73-15.26-10.94-31.27,2.23-7.46,4.54-7.4,8.61-12.39,7.12-8.72,3.12-24.55-2.05-33.47-3.96-6.83-11.73-11.69-6.53-20.61s25.42-6.74,34.7-9.3c10.08-2.78,20.63-12.48,31-14ZM397.36,147.26c-2.29.23-3,2.42-4.86,3.15-3.02,1.18-10.82.33-12.54,2.95s1.58,4.63,2.42,7.15c2.54,7.62-3.77,7.45-2.67,13.15.42,2.21,4.45,7.26,5.67,10.35,2.08,5.27,3.35,17.48,7.64,20.36,5.15,3.45,7.81-1.73,9.57-5.89,5.83-13.8,1.3-30.51.79-44.97-.64-2.73-2.78-6.58-6.01-6.26Z"/>
  <path class="cls-2" d="M234.86,147.26c2.14-.21,4,1.59,4.91,3.37,1.81,7.66,2.84,17.29,3.22,25.28.31,6.67,0,15.34-2.4,21.59-1.67,4.33-4.68,10.48-10.07,6.89-4-2.67-5.71-15.59-7.78-20.72-1.49-3.7-3.86-6.49-5.54-10-.98-5.31,5.15-5.77,2.68-13.15-.95-2.86-4.57-4.64-1.82-7.55,2.16-2.28,8.81-1.33,11.94-2.55,1.86-.73,2.57-2.93,4.86-3.15Z"/>
  <path class="cls-3" d="M397.36,147.26c3.23-.32,5.38,3.53,6.01,6.26.51,14.46,5.04,31.17-.79,44.97-1.76,4.16-4.42,9.34-9.57,5.89-4.29-2.88-5.56-15.09-7.64-20.36-1.22-3.09-5.25-8.14-5.67-10.35-1.1-5.7,5.21-5.54,2.67-13.15-.84-2.52-4.12-4.56-2.42-7.15s9.52-1.77,12.54-2.95c1.86-.73,2.57-2.93,4.86-3.15Z"/>
</svg>