<?xml version="1.0" encoding="UTF-8"?>
<svg id="Layer_1" data-name="Layer 1" xmlns="http://www.w3.org/2000/svg" viewBox="0 0 329.5 193.43">
  <path d="M108.41,44.68c-.88-.63-2.19,1.91-2.57,2.52-6.6,10.74-10.48,37.9-17.23,44.93-5.97,6.21-10.72-1.84-12.98-6.89-5.7-12.78-9.44-27.98-14.51-41.22-.5-1.3-1.2-3.47-1.87-4.54-.27-.44-.39-1.45-1.2-.68-1.78,1.7-1.86,25.93-1.64,29.76s.98,9.87,2.6,13.48c2.13,4.74,13.45,12.54,1.74,14.39-6.39,1.01-18.49,1.06-24.9.19-10.07-1.37-1.36-8.21.85-11.92,7.06-11.9,9.67-46.22,7.81-59.97-.41-3-1.93-6.67-3.87-8.99-2.12-2.51-8.67-5.34-4.54-8.82,3.42-2.89,20.56-2.76,25.46-2.45,6,.38,10.31.94,12.98,6.84,5.16,11.39,6.76,27,12.35,38.02,2.81,5.55,3.98,3.75,5.85-.77,4.61-11.11,6.82-24.06,11.38-35.24,2.96-7.26,5.25-8.23,13.15-8.82,3.87-.29,17.04-.55,19.93.96,5.13,2.69.39,5.52-1.46,8.4-5.78,9-3.69,32.02-2.66,42.88.8,8.48,2.18,23.33,7.51,30,2.24,2.8,11.07,8.04,1.28,9.34-4.62.61-12.32.65-17.12.61-3.8-.03-16.96-.32-19.38-1.52-4.29-2.13-.01-4.35,1.44-6.29,2.21-2.96,3.42-5.91,3.76-9.64s-.73-33.54-2.14-34.55Z"/>
  <path d="M269.17,158.28l-1.19.68c-4.12,10.66-10.42,37.99-26.34,34.08-4.99-1.23-7.41-6.33-9.16-10.66-6.82-16.9-9.28-36.13-17.86-52.87-1.16-2.27-6.56-9.48-6.39-11.08s1.98-2.63,3.47-2.9c5.45-.95,10.21-.07,15.39-.1,4.45-.02,14.31-1.05,18.1.14,6.02,1.9.49,6.77-.68,9.19-3.53,7.29,3.27,31.17,6.89,38.71,1.27,2.64,2.63,5.43,5.17,1.75,4.62-6.69,4.95-25.49,2.7-33.19-1.64-5.63-4.55-7.1-6.43-11.26-3.72-8.21,10.35-5.45,14.32-5.5,4.21-.06,18.08-1.37,20.76.44,3.23,2.17-1.32,6.38-2.22,8.45-3.09,7.11,1.18,21.82,3.84,29.05,4.34,11.77,9.05,16.42,14.89,2.01,3.18-7.85,7.89-27.09,2.8-34.16-4-5.57-11.56-3-8.14-11.36,4.27-10.42,23.89-15.02,28.92-3,3.07,7.34.8,17.36-1.22,24.8-2.45,9.02-6.62,19-10.52,27.52-3.84,8.36-12.91,27.5-20.81,31.71-18.76,10.01-21.68-21.66-26.28-32.44Z"/>
  <path d="M66.08,140.6c-.08,2.14,2.63,1.49,4.2,1.95,22.85,6.65,22.81,36,1.97,44.67-12.11,5.04-22.75,4.24-35.36,4.25-9.87.01-22.12.92-31.67.05-10.53-.96-.18-8.29,2.18-11.28,2.7-3.43,3.23-7.2,3.5-11.5.77-12.27.93-31.75-.09-43.9-.45-5.33-2.06-10.12-5.88-13.95-.99-.99-4.34-2.88-4.66-3.91-1.51-4.8,3.59-5.81,7.11-6.08,12.25-.95,25.79.14,38.04.58,7.71.28,13.63-.5,21.31,1.74,21.57,6.27,18.41,30.41-.65,37.37ZM41.84,112.84c-2.23.36-3.64,1.84-4.03,4.03-.58,3.22-.46,12.51-.12,15.94.9,9.05,11.19,5.25,14.99,0,5.59-7.7-.51-21.63-10.84-19.98ZM55.17,154.18c-1.91-1.96-5.51-3.94-8.26-4.34-1.86-.27-7.34-.65-8.41.96-1.25,1.87-1.04,15.93-.76,18.93.73,7.68,5.23,11.96,12.95,8.8,9.42-3.86,11.33-17.3,4.48-24.35Z"/>
  <path d="M260.06,88.08c-.98-.93-3.53,2.89-4.54,3.77-5.77,5-12.56,7.21-20.11,5.08-31.81-9-22.37-87.1,17.51-69.49l6.07,4.37c.16-4.09-.35-9.28-4.1-11.7-2.41-1.55-9.08-2.46-6.01-7.27,1.5-2.35,17.45-9.57,20.85-10.76,11.72-4.12,15.71-2.8,14.99,10.17-.51,9.25-2.63,18.98-3.23,28.38-.86,13.54-2.1,32.91,6.47,43.95,1.81,2.34,5.44,3.79,4.18,7.43-.93,2.67-12.91,5.01-15.69,5.2-7.97.55-15.65.76-16.37-9.13ZM248.66,38.9c-10.1,2.08-9.72,24.65-7.21,32.15,3.41,10.2,13.66,12.81,16.33.55,1.25-5.76,1.61-26.11-1.72-30.7-1.81-2.49-4.49-2.6-7.4-2Z"/>
  <path d="M172.6,18.57c52.41-5.89,53.7,78.75,4.68,79.2-46,.42-45.86-74.57-4.68-79.2ZM169.68,32.53c-5.68,5.5-3.24,26.53-1.21,33.8,1.56,5.61,8.44,22.51,16.53,15.54,5.67-4.89,3.96-26.34,2.25-33.25-1.48-6-9.52-23.89-17.57-16.09Z"/>
  <path d="M174.43,155.72c-1.26,5.46,3.96,11.99,8.64,14.44,6.69,3.51,13.02,2.34,19.29-1.26,1.96-1.13,7.33-6.32,9.48-5.02,3.05,5.13-1.7,13.33-5.09,17.44-10.37,12.55-27.55,15.55-41.7,7.39-23.14-13.35-20.75-50.94-1.99-67.15,14.54-12.56,37.52-11.62,45.28,7.79,1.94,4.85,4.52,14.15-.61,17.59l-33.29,8.79ZM176.11,125.77c-2.46,2.33-4.27,9.09-4.46,12.42-.09,1.66-.05,7.82,1.93,8.18,1.78.33,10.8-3.76,12.26-5.24,3.35-3.4,3.23-13.5-1.06-16.09-2.45-1.47-6.57-1.27-8.67.73Z"/>
  <path d="M147.35,116.13c7.38,6.82,3.52,28.33-7.99,26.48-4.88-.78-15.94-12.98-19.03-1.62-1.5,5.53-1.02,26.23.44,31.99.73,2.87,2.69,6.02,5.06,7.8,2.63,1.98,9.77,3.29,9.85,6.69.15,6.35-11.46,3.54-15.19,3.48-9.24-.15-21.26,1.06-30.04.03-1.94-.23-4.23-1.6-3.78-3.77s4.45-5.22,5.89-7.54c3.36-5.4,3.84-12.7,4.09-18.96.24-6.21.3-21.1-3.78-25.74-2.14-2.44-8.06-3.91-3.99-8.28,1.6-1.72,15.32-8.37,18.27-9.6s7.04-3.24,10.04-1.08c3.25,2.34,1.13,7.91,2.48,11.19,1.01.73,3.59-4.25,4.29-5.08,5.06-5.97,16.39-12.45,23.38-5.99Z"/>
</svg>